{
  "asset": {
    "version": "2.0",
    "generator": "Matrix Alchemy"
  },
  "scenes": [
    {
      "nodes": [0]
    }
  ],
  "scene": 0,
  "nodes": [
    {
      "mesh": 0,
      "translation": [0.0, 0.0, 0.0],
      "children": [1]
    },
    {
      "mesh": 0,
      "translation": [0.8, 0.0, 0.0],
      "scale": [0.5, 0.5, 0.5]
    }
  ],
  "meshes": [
    {
      "name": "SimpleTriangle",
      "primitives": [
        {
          "attributes": {
            "POSITION": 0
          },
          "mode": 4
        }
      ]
    }
  ],
  "buffers": [
    {
      "uri": "data:application/octet-stream;base64,",
      "byteLength": 36
    }
  ],
  "bufferViews": [
    {
      "buffer": 0,
      "byteOffset": 0,
      "byteLength": 36,
      "target": 34962
    }
  ],
  "accessors": [
    {
      "bufferView": 0,
      "byteOffset": 0,
      "componentType": 5126,
      "count": 3,
      "type": "VEC3",
      "min": [-0.5, 0.0, 0.0],
      "max": [0.5, 1.0, 0.0]
    }
  ]
}
